<?xml version="1.0" encoding="utf-8"?><svg version="1.1" id="Layer_1" xmlns="http://www.w3.org/2000/svg" xmlns:xlink="http://www.w3.org/1999/xlink" x="0px" y="0px" viewBox="0 0 71.49 122.88" style="enable-background:new 0 0 71.49 122.88" xml:space="preserve"><g><path d="M71.49,43.02v66.55c0,2.1-0.86,4-2.24,5.39c-1.38,1.38-3.29,2.24-5.39,2.24h-5.65v4.03c0,0.91-0.75,1.66-1.66,1.66h-7.91 c-0.91,0-1.66-0.75-1.66-1.66v-4.03H24.5v4.03c0,0.91-0.75,1.66-1.66,1.66h-7.91c-0.91,0-1.66-0.75-1.66-1.66v-4.03H7.63 c-2.1,0-4.01-0.86-5.39-2.24C0.86,113.57,0,111.67,0,109.57V43.13c0-7.39,8.48-12.3,19.65-14.66v-5.1c0-2.36,0.96-4.5,2.52-6.05 c1.28-1.28,2.96-2.16,4.83-2.43V0h3.55v14.8h9.99V7.13c0-0.98,0.79-1.77,1.77-1.77h25.4v3.55H44.08v5.93 c2.03,0.19,3.86,1.11,5.24,2.48c1.55,1.55,2.52,3.7,2.52,6.05v4.82C63.01,30.38,71.49,35.24,71.49,43.02L71.49,43.02z M35.01,101.63l5.66-3.6c0.11-0.08,0.25-0.07,0.34,0.03l0.55,0.58c0.09,0.1,0.1,0.25,0.01,0.35l-4.3,5 c-0.66,0.71-1.38,0.85-1.96,0.66c-0.29-0.1-0.55-0.27-0.74-0.49c-0.19-0.22-0.33-0.5-0.38-0.79 C34.09,102.77,34.3,102.11,35.01,101.63L35.01,101.63L35.01,101.63L35.01,101.63z M25.62,106.42h20.25 c0.13-0.43,0.23-0.87,0.3-1.31c0.07-0.42,0.11-0.84,0.13-1.28h-1.64c-0.14,0-0.27-0.12-0.27-0.26v-1.26c0-0.14,0.12-0.26,0.27-0.26 h1.55c-0.14-1.08-0.45-2.1-0.9-3.05c-0.46-0.99-1.07-1.89-1.8-2.68l-1.04,1.04c-0.1,0.1-0.27,0.1-0.37,0l-0.89-0.89 c-0.1-0.1-0.1-0.27,0-0.37l0.99-0.99c-0.83-0.65-1.76-1.17-2.76-1.55c-0.97-0.37-2.01-0.59-3.09-0.65v1.42 c0,0.14-0.12,0.27-0.26,0.27h-1.26c-0.14,0-0.27-0.12-0.27-0.27v-1.37c-1.08,0.12-2.1,0.4-3.05,0.82c-0.98,0.43-1.89,1.01-2.68,1.7 l1.04,1.04c0.1,0.1,0.1,0.27,0,0.37l-0.89,0.89c-0.1,0.1-0.27,0.1-0.37,0l-1.02-1.02c-0.68,0.83-1.23,1.75-1.63,2.76 c-0.39,0.98-0.64,2.03-0.73,3.13h1.61c0.14,0,0.26,0.12,0.26,0.26v1.26c0,0.14-0.12,0.26-0.26,0.26h-1.6 c0.03,0.33,0.07,0.65,0.13,0.96C25.44,105.74,25.53,106.08,25.62,106.42L25.62,106.42L25.62,106.42z M47.19,108.14H24.33 c-0.14,0-0.27-0.12-0.27-0.26v-0.01c-0.03-0.64-0.16-1.22-0.3-1.82c-0.17-0.78-0.35-1.59-0.35-2.61c0-1.67,0.33-3.26,0.93-4.71 c0.63-1.51,1.54-2.87,2.68-4c1.13-1.13,2.5-2.05,4-2.68c1.46-0.6,3.05-0.93,4.71-0.93c1.66,0,3.25,0.33,4.7,0.94 c1.51,0.63,2.87,1.55,4,2.69c1.14,1.14,2.06,2.5,2.69,4.01c0.6,1.46,0.94,3.05,0.94,4.7c0,0.94-0.18,1.76-0.35,2.53 c-0.14,0.66-0.28,1.28-0.28,1.91C47.46,108.03,47.34,108.14,47.19,108.14L47.19,108.14L47.19,108.14z M11.47,99.29h4.18 c0.91,0,1.66,0.75,1.66,1.66v1.18c0,0.91-0.75,1.66-1.66,1.66h-4.18c-0.91,0-1.66-0.74-1.66-1.66v-1.18 C9.81,100.03,10.56,99.29,11.47,99.29L11.47,99.29z M55.84,99.29h4.18c0.91,0,1.66,0.75,1.66,1.66v1.18c0,0.91-0.75,1.66-1.66,1.66 h-4.18c-0.91,0-1.66-0.74-1.66-1.66v-1.18C54.19,100.03,54.93,99.29,55.84,99.29L55.84,99.29z M3.55,85.08h64.39V43.02 c0-5.97-7.87-9.82-18.04-11.58c-4.27-0.74-8.91-1.1-13.55-1.09c-4.64,0.01-9.31,0.4-13.64,1.15C12,33.34,3.55,37.3,3.55,43.13 V85.08L3.55,85.08z M67.94,88.62H3.55v20.94c0,1.12,0.46,2.14,1.2,2.88c0.74,0.74,1.76,1.2,2.88,1.2h56.23 c1.12,0,2.14-0.46,2.88-1.2c0.74-0.74,1.2-1.76,1.2-2.88V88.62L67.94,88.62z M35.74,47.6c2.17,0,4.14,0.88,5.56,2.31 c1.42,1.42,2.31,3.39,2.31,5.57c0,2.17-0.88,4.14-2.31,5.56c-1.42,1.42-3.39,2.31-5.56,2.31c-2.17,0-4.14-0.88-5.56-2.31 c-1.42-1.42-2.31-3.39-2.31-5.56c0-2.17,0.88-4.14,2.31-5.57C31.6,48.48,33.57,47.6,35.74,47.6L35.74,47.6z M39.2,52.02 c-0.88-0.88-2.1-1.43-3.45-1.43c-1.35,0-2.57,0.55-3.45,1.43c-0.88,0.88-1.43,2.1-1.43,3.45c0,1.35,0.55,2.57,1.43,3.45 c0.88,0.88,2.1,1.43,3.45,1.43c1.35,0,2.57-0.55,3.45-1.43c0.88-0.88,1.43-2.1,1.43-3.45C40.62,54.12,40.08,52.9,39.2,52.02 L39.2,52.02z M23.2,27.82c4.19-0.66,8.67-1,13.16-1.01c4.07-0.01,8.12,0.25,11.93,0.78v-4.23c0-1.38-0.57-2.63-1.48-3.54 c-0.91-0.91-2.17-1.48-3.54-1.48H28.22c-1.38,0-2.63,0.57-3.55,1.48c-0.91,0.91-1.48,2.17-1.48,3.54V27.82L23.2,27.82z"/></g></svg>